<svg xmlns="http://www.w3.org/2000/svg" viewBox="0 0 64 64" width="64" height="64">
  <!-- Hummel Körper -->
  <ellipse cx="32" cy="36" rx="18" ry="22" fill="#FFD700"/>
  
  <!-- Schwarze Streifen -->
  <ellipse cx="32" cy="28" rx="18" ry="4" fill="#000000"/>
  <ellipse cx="32" cy="36" rx="18" ry="4" fill="#000000"/>
  <ellipse cx="32" cy="44" rx="18" ry="4" fill="#000000"/>
  
  <!-- Kopf -->
  <circle cx="32" cy="16" r="8" fill="#000000"/>
  
  <!-- Augen -->
  <circle cx="28" cy="15" r="2" fill="#FFFFFF"/>
  <circle cx="36" cy="15" r="2" fill="#FFFFFF"/>
  <circle cx="28" cy="15" r="1" fill="#000000"/>
  <circle cx="36" cy="15" r="1" fill="#000000"/>
  
  <!-- Fühler -->
  <path d="M 28 10 Q 24 6 22 4" stroke="#000000" stroke-width="2" fill="none" stroke-linecap="round"/>
  <path d="M 36 10 Q 40 6 42 4" stroke="#000000" stroke-width="2" fill="none" stroke-linecap="round"/>
  <circle cx="22" cy="4" r="1.5" fill="#000000"/>
  <circle cx="42" cy="4" r="1.5" fill="#000000"/>
  
  <!-- Flügel links -->
  <ellipse cx="22" cy="28" rx="12" ry="18" fill="#87CEEB" opacity="0.6" transform="rotate(-20 22 28)"/>
  
  <!-- Flügel rechts -->
  <ellipse cx="42" cy="28" rx="12" ry="18" fill="#87CEEB" opacity="0.6" transform="rotate(20 42 28)"/>
  
  <!-- Beine -->
  <path d="M 20 50 L 16 58" stroke="#000000" stroke-width="2" stroke-linecap="round"/>
  <path d="M 26 52 L 24 60" stroke="#000000" stroke-width="2" stroke-linecap="round"/>
  <path d="M 32 54 L 32 62" stroke="#000000" stroke-width="2" stroke-linecap="round"/>
  <path d="M 38 52 L 40 60" stroke="#000000" stroke-width="2" stroke-linecap="round"/>
  <path d="M 44 50 L 48 58" stroke="#000000" stroke-width="2" stroke-linecap="round"/>
</svg>
